<?xml version="1.0" encoding="utf-8"?>
<!DOCTYPE svg PUBLIC "-//W3C//DTD SVG 20010904//EN" "http://www.w3.org/TR/2001/REC-SVG-20010904/DTD/svg10.dtd">
<svg version="1.0" xmlns="http://www.w3.org/2000/svg" width="500px" height="500px" viewBox="0 0 500 500" preserveAspectRatio="xMidYMid meet">
 <g fill="#ffffff">
  <path d="M218.5 447.3 c-8.3 -1.7 -16.8 -4.1 -21.2 -6 -1.7 -0.7 -3.6 -1.3 -4.2 -1.3 -0.6 0 -1.9 -0.4 -2.9 -1 -0.9 -0.5 -3.9 -1.9 -6.6 -3 -6.8 -3 -22.9 -13 -29 -18.1 -20.7 -17.4 -35.9 -39.4 -44.4 -64.4 -4.6 -13.8 -6.3 -22.8 -6.8 -37.5 -0.7 -18.1 1.4 -35.6 5.4 -45.3 0.7 -1.6 1.2 -3.4 1.2 -4.1 0 -1.7 7.8 -16.8 12.4 -24.1 4.8 -7.4 18.9 -22.1 27.7 -28.5 8.9 -6.6 22.2 -13.3 33.6 -17 5.3 -1.6 10.1 -3 10.8 -3 2.6 0 10.2 -6.2 13.5 -11.1 l3.5 -5.2 0.5 -30.1 c0.5 -31.8 0.7 -33.1 5.4 -36.1 6.5 -4.3 11.9 -3.6 17.2 2.2 l2.4 2.6 0 28.7 c0 30.8 0.5 34.9 5.6 43 3.7 6.1 11.8 12.2 19.2 14.5 4.4 1.3 16.7 10.2 23.7 17.1 12.6 12.3 18.7 23 25.2 43.9 2.3 7.6 2.6 39.2 0.5 46.5 -5.2 17.2 -12.2 29.2 -22.5 38.5 -5.8 5.2 -17.1 11.5 -25.7 14.4 -7.9 2.6 -23.6 5.1 -32.7 5.1 -10.9 0 -14.2 -1.5 -16.8 -7.7 -2.2 -5.3 -2.2 -100.3 0 -105.6 2.1 -5 6.3 -7.7 11.9 -7.7 3.8 0 5.1 0.5 8 3.5 l3.5 3.5 0.3 33.7 c0.3 29.6 0.5 34.2 2 36.8 4.9 8.8 13.8 12.1 24 9.1 17.3 -5.1 27.2 -28.2 23.9 -55.6 -1.5 -12.6 -4.3 -20 -11.2 -30 -5 -7.3 -9.1 -11.6 -16.4 -17 -7.8 -5.9 -10.4 -7.2 -20 -10.6 -7.2 -2.6 -9.3 -2.9 -21.5 -2.9 -13.5 0 -15.6 0.3 -28.9 4.7 -13.3 4.4 -24.7 11.5 -35.3 22.4 -8.4 8.6 -12.5 14.4 -17 24.3 -9.5 20.8 -11.2 43.7 -5.1 67.6 1.6 6.2 7 21.2 8.3 23 0.4 0.6 2.2 3.7 4 7 4 7.3 10.6 16 16.9 22.3 6.8 6.8 15.6 14.2 17 14.2 0.6 0 1.1 0.4 1.1 0.9 0 1.2 22.4 12.3 29 14.3 16.6 5.1 16.7 5.1 40.5 5.2 23.9 0.1 25.6 -0.1 42.5 -5.1 6.8 -2 21.2 -9 27.5 -13.3 9 -6.2 22.6 -20.9 29.2 -31.5 2.6 -4.2 11.3 -22.5 11.3 -23.7 0 -0.8 0.4 -1.8 0.9 -2.3 0.4 -0.6 1.8 -4.4 3.1 -8.5 1.2 -4.1 2.6 -8.4 3 -9.5 5.7 -15.5 6.4 -49.3 1.6 -72 -3 -14.4 -9.2 -29.1 -16.2 -38.6 -3.5 -4.8 -15 -15.9 -16.5 -15.9 -0.4 0 -3.1 -1.6 -6 -3.6 -4.7 -3.1 -9.9 -5.8 -18.4 -9.4 -1.1 -0.4 -4.1 -1.5 -6.6 -2.4 -7.1 -2.6 -9.4 -5.5 -9.4 -12.6 l0 -5.9 7.5 -7.4 c4.7 -4.6 8.6 -9.5 10.5 -13.3 2.9 -5.7 3 -6.4 3 -18.9 0 -10 -0.4 -14.5 -2 -19.5 -4.5 -15 -13.8 -25.2 -31 -33.7 -11 -5.5 -16.8 -6.8 -30.5 -6.8 -12.5 0 -16.6 0.8 -27 5.1 -16.2 6.8 -32.1 19.9 -38 31.4 -2.1 4 -3.1 8.9 -3.9 19.8 -0.7 9.8 -0.9 10.4 -3.9 13.5 -2.9 2.8 -3.9 3.2 -8.7 3.2 -4.8 0 -5.8 -0.4 -8.7 -3.3 l-3.3 -3.2 0 -13.3 c0.1 -13.4 0.7 -16.8 5.4 -26.7 8.8 -19 29.3 -36.3 53.6 -45.6 9 -3.4 19.8 -6.4 23 -6.4 1.4 0 2.5 -0.4 2.5 -1 0 -0.6 3.7 -1 9 -1 5.3 0 9 0.4 9 1 0 0.6 1.4 1 3.1 1 12.2 0 39.2 12.7 53.3 25.1 14.7 13 23.6 34.6 23.9 58.4 0.1 10.9 -0.2 12.7 -2.8 20 -3.4 9.6 -3.8 18.3 -1.1 23.4 2.3 4.3 9.5 12.1 11.1 12.1 0.8 0 1.5 0.4 1.7 0.8 0.2 0.5 2.4 2.3 5 4 13.5 9.2 24.7 25 30.9 43.7 1.1 3.3 2.4 6.9 2.9 8 2.7 6.1 6.1 26.5 6.7 39.3 0.3 6.1 0.9 11.2 1.4 11.2 0.5 0 0.9 1.4 0.9 3 0 1.7 -0.4 3 -1 3 -0.6 0 -1 2.9 -1 6.7 0 10.3 -6.4 40.7 -10.1 47.5 -0.5 1 -0.9 2.4 -0.9 3.1 0 1.9 -7.5 18.9 -11.5 26.2 -7.3 13.4 -13.9 22 -25.4 33.5 -12.3 12.3 -30.6 23.7 -45.6 28.4 -3.3 1 -7.3 2.3 -9 2.8 -1.6 0.5 -7.7 1.8 -13.4 2.9 -13.2 2.4 -50.2 2.5 -61.6 0.2z"/>
 </g>
</svg>
