<?xml version="1.0" encoding="UTF-8"?>
<svg xmlns="http://www.w3.org/2000/svg" xmlns:xlink="http://www.w3.org/1999/xlink" width="153pt" height="32pt" viewBox="0 0 153 32" version="1.1">
<g id="surface1">
<path style=" stroke:none;fill-rule:nonzero;fill:rgb(96.862745%,57.647059%,10.196078%);fill-opacity:1;" d="M 31.414062 19.871094 C 29.285156 28.445312 20.628906 33.660156 12.085938 31.523438 C 3.542969 29.386719 -1.65625 20.703125 0.476562 12.132812 C 2.605469 3.5625 11.257812 -1.65625 19.800781 0.480469 C 28.34375 2.617188 33.542969 11.300781 31.414062 19.871094 Z M 31.414062 19.871094 "/>
<path style=" stroke:none;fill-rule:nonzero;fill:rgb(100%,100%,100%);fill-opacity:1;" d="M 22.976562 13.722656 C 23.292969 11.59375 21.679688 10.449219 19.46875 9.6875 L 20.183594 6.800781 L 18.433594 6.363281 L 17.738281 9.171875 C 17.277344 9.058594 16.804688 8.949219 16.335938 8.839844 L 17.039062 6.015625 L 15.289062 5.578125 L 14.574219 8.460938 C 14.191406 8.375 13.816406 8.289062 13.457031 8.195312 L 13.457031 8.1875 L 11.042969 7.582031 L 10.578125 9.457031 C 10.578125 9.457031 11.878906 9.757812 11.847656 9.773438 C 12.558594 9.953125 12.6875 10.421875 12.664062 10.796875 L 11.847656 14.082031 C 11.898438 14.09375 11.960938 14.113281 12.03125 14.140625 C 11.972656 14.125 11.910156 14.109375 11.84375 14.09375 L 10.703125 18.695312 C 10.613281 18.914062 10.394531 19.238281 9.898438 19.113281 C 9.917969 19.140625 8.628906 18.796875 8.628906 18.796875 L 7.757812 20.804688 L 10.035156 21.375 C 10.460938 21.480469 10.875 21.59375 11.285156 21.695312 L 10.558594 24.613281 L 12.308594 25.050781 L 13.023438 22.164062 C 13.5 22.296875 13.964844 22.414062 14.417969 22.527344 L 13.703125 25.402344 L 15.453125 25.839844 L 16.179688 22.925781 C 19.160156 23.492188 21.40625 23.265625 22.351562 20.558594 C 23.109375 18.378906 22.3125 17.121094 20.742188 16.300781 C 21.886719 16.035156 22.746094 15.28125 22.976562 13.722656 Z M 18.976562 19.347656 C 18.4375 21.527344 14.777344 20.347656 13.59375 20.054688 L 14.554688 16.1875 C 15.738281 16.484375 19.542969 17.074219 18.976562 19.347656 Z M 19.519531 13.691406 C 19.027344 15.675781 15.980469 14.667969 14.992188 14.417969 L 15.863281 10.914062 C 16.851562 11.160156 20.035156 11.621094 19.519531 13.691406 Z M 19.519531 13.691406 "/>
<path style=" stroke:none;fill-rule:nonzero;fill:rgb(30.196078%,30.196078%,30.196078%);fill-opacity:1;" d="M 46.734375 9.683594 C 48.027344 9.683594 49.144531 9.914062 50.082031 10.371094 C 51.027344 10.832031 51.804688 11.453125 52.429688 12.234375 C 53.046875 13.019531 53.503906 13.9375 53.800781 14.988281 C 54.09375 16.042969 54.242188 17.175781 54.242188 18.390625 C 54.242188 20.253906 53.902344 22.015625 53.214844 23.675781 C 52.527344 25.335938 51.59375 26.78125 50.40625 28.007812 C 49.222656 29.238281 47.824219 30.207031 46.210938 30.921875 C 44.597656 31.636719 42.847656 31.996094 40.964844 31.996094 C 40.722656 31.996094 40.296875 31.988281 39.691406 31.976562 C 39.085938 31.964844 38.394531 31.902344 37.617188 31.796875 C 36.832031 31.6875 36.003906 31.523438 35.132812 31.308594 C 34.257812 31.09375 33.429688 30.796875 32.648438 30.417969 L 39.632812 0.980469 L 45.886719 0.0078125 L 43.386719 10.453125 C 43.921875 10.210938 44.460938 10.023438 45 9.886719 C 45.539062 9.753906 46.117188 9.683594 46.734375 9.683594 Z M 41.488281 27.019531 C 42.429688 27.019531 43.316406 26.785156 44.152344 26.328125 C 44.988281 25.871094 45.707031 25.253906 46.3125 24.488281 C 46.917969 23.714844 47.394531 22.84375 47.746094 21.875 C 48.09375 20.902344 48.269531 19.886719 48.269531 18.835938 C 48.269531 17.539062 48.054688 16.527344 47.625 15.796875 C 47.195312 15.070312 46.398438 14.703125 45.242188 14.703125 C 44.863281 14.703125 44.375 14.777344 43.769531 14.90625 C 43.164062 15.042969 42.621094 15.328125 42.132812 15.757812 L 39.472656 26.851562 C 39.632812 26.882812 39.773438 26.90625 39.894531 26.933594 C 40.011719 26.960938 40.144531 26.980469 40.273438 26.996094 C 40.414062 27.007812 40.570312 27.019531 40.761719 27.019531 C 40.953125 27.019531 41.191406 27.019531 41.488281 27.019531 Z M 41.488281 27.019531 "/>
<path style=" stroke:none;fill-rule:nonzero;fill:rgb(30.196078%,30.196078%,30.196078%);fill-opacity:1;" d="M 60.726562 31.433594 L 54.753906 31.433594 L 59.800781 10.132812 L 65.8125 10.132812 Z M 63.636719 7.539062 C 62.800781 7.539062 62.046875 7.289062 61.375 6.792969 C 60.699219 6.296875 60.363281 5.53125 60.363281 4.503906 C 60.363281 3.9375 60.476562 3.40625 60.703125 2.90625 C 60.9375 2.40625 61.238281 1.972656 61.613281 1.609375 C 61.992188 1.246094 62.429688 0.957031 62.925781 0.738281 C 63.425781 0.523438 63.957031 0.414062 64.523438 0.414062 C 65.355469 0.414062 66.109375 0.664062 66.78125 1.164062 C 67.453125 1.664062 67.789062 2.425781 67.789062 3.449219 C 67.789062 4.019531 67.675781 4.550781 67.445312 5.050781 C 67.21875 5.550781 66.917969 5.980469 66.539062 6.347656 C 66.164062 6.710938 65.722656 7 65.226562 7.21875 C 64.726562 7.4375 64.199219 7.539062 63.636719 7.539062 Z M 63.636719 7.539062 "/>
<path style=" stroke:none;fill-rule:nonzero;fill:rgb(30.196078%,30.196078%,30.196078%);fill-opacity:1;" d="M 71.050781 4.828125 L 77.304688 3.855469 L 75.769531 10.132812 L 82.472656 10.132812 L 81.261719 15.070312 L 74.601562 15.070312 L 72.824219 22.523438 C 72.664062 23.144531 72.570312 23.722656 72.542969 24.261719 C 72.515625 24.804688 72.582031 25.269531 72.742188 25.660156 C 72.90625 26.050781 73.191406 26.355469 73.613281 26.570312 C 74.027344 26.785156 74.625 26.894531 75.40625 26.894531 C 76.050781 26.894531 76.679688 26.835938 77.285156 26.710938 C 77.890625 26.59375 78.5 26.425781 79.121094 26.207031 L 79.566406 30.824219 C 78.757812 31.121094 77.882812 31.378906 76.941406 31.59375 C 76 31.8125 74.882812 31.914062 73.589844 31.914062 C 71.734375 31.914062 70.296875 31.640625 69.273438 31.089844 C 68.25 30.535156 67.523438 29.777344 67.089844 28.816406 C 66.664062 27.863281 66.472656 26.761719 66.527344 25.519531 C 66.582031 24.277344 66.769531 22.96875 67.089844 21.589844 Z M 71.050781 4.828125 "/>
<path style=" stroke:none;fill-rule:nonzero;fill:rgb(30.196078%,30.196078%,30.196078%);fill-opacity:1;" d="M 82.207031 22.925781 C 82.207031 21.09375 82.503906 19.363281 83.09375 17.742188 C 83.6875 16.121094 84.535156 14.707031 85.640625 13.488281 C 86.742188 12.277344 88.082031 11.320312 89.65625 10.613281 C 91.226562 9.914062 92.984375 9.5625 94.921875 9.5625 C 96.136719 9.5625 97.21875 9.675781 98.171875 9.90625 C 99.128906 10.140625 99.992188 10.441406 100.777344 10.816406 L 98.714844 15.519531 C 98.179688 15.296875 97.621094 15.105469 97.042969 14.929688 C 96.464844 14.753906 95.757812 14.667969 94.921875 14.667969 C 92.929688 14.667969 91.351562 15.355469 90.179688 16.730469 C 89.011719 18.105469 88.421875 19.957031 88.421875 22.28125 C 88.421875 23.65625 88.71875 24.769531 89.3125 25.621094 C 89.902344 26.472656 90.996094 26.894531 92.582031 26.894531 C 93.363281 26.894531 94.117188 26.8125 94.839844 26.652344 C 95.570312 26.492188 96.214844 26.289062 96.78125 26.046875 L 97.226562 30.863281 C 96.46875 31.160156 95.636719 31.425781 94.722656 31.65625 C 93.808594 31.882812 92.714844 31.996094 91.453125 31.996094 C 89.785156 31.996094 88.371094 31.753906 87.214844 31.269531 C 86.058594 30.78125 85.101562 30.128906 84.351562 29.304688 C 83.59375 28.480469 83.050781 27.515625 82.714844 26.40625 C 82.378906 25.300781 82.207031 24.140625 82.207031 22.925781 Z M 82.207031 22.925781 "/>
<path style=" stroke:none;fill-rule:nonzero;fill:rgb(30.196078%,30.196078%,30.196078%);fill-opacity:1;" d="M 108.746094 31.996094 C 107.320312 31.996094 106.082031 31.78125 105.03125 31.347656 C 103.984375 30.917969 103.117188 30.3125 102.429688 29.527344 C 101.742188 28.746094 101.226562 27.820312 100.875 26.753906 C 100.523438 25.6875 100.355469 24.507812 100.355469 23.214844 C 100.355469 21.589844 100.613281 19.96875 101.136719 18.351562 C 101.660156 16.730469 102.433594 15.273438 103.460938 13.980469 C 104.480469 12.683594 105.734375 11.621094 107.210938 10.796875 C 108.6875 9.976562 110.386719 9.5625 112.296875 9.5625 C 113.695312 9.5625 114.925781 9.78125 115.992188 10.210938 C 117.050781 10.644531 117.925781 11.253906 118.617188 12.035156 C 119.296875 12.820312 119.816406 13.742188 120.167969 14.808594 C 120.515625 15.871094 120.691406 17.054688 120.691406 18.351562 C 120.691406 19.96875 120.433594 21.589844 119.925781 23.210938 C 119.417969 24.828125 118.664062 26.289062 117.664062 27.585938 C 116.671875 28.878906 115.425781 29.9375 113.933594 30.761719 C 112.441406 31.585938 110.710938 31.996094 108.746094 31.996094 Z M 111.730469 14.667969 C 110.847656 14.667969 110.0625 14.925781 109.394531 15.433594 C 108.71875 15.949219 108.15625 16.597656 107.699219 17.378906 C 107.238281 18.164062 106.898438 19.019531 106.667969 19.949219 C 106.4375 20.882812 106.324219 21.765625 106.324219 22.601562 C 106.324219 23.953125 106.542969 25.007812 106.96875 25.761719 C 107.402344 26.515625 108.179688 26.894531 109.3125 26.894531 C 110.199219 26.894531 110.980469 26.640625 111.652344 26.125 C 112.324219 25.613281 112.886719 24.964844 113.347656 24.183594 C 113.804688 23.402344 114.148438 22.542969 114.378906 21.609375 C 114.605469 20.679688 114.722656 19.792969 114.722656 18.957031 C 114.722656 17.609375 114.503906 16.554688 114.074219 15.800781 C 113.644531 15.046875 112.863281 14.667969 111.730469 14.667969 Z M 111.730469 14.667969 "/>
<path style=" stroke:none;fill-rule:nonzero;fill:rgb(30.196078%,30.196078%,30.196078%);fill-opacity:1;" d="M 127.199219 31.433594 L 121.222656 31.433594 L 126.265625 10.132812 L 132.285156 10.132812 Z M 130.101562 7.539062 C 129.269531 7.539062 128.515625 7.289062 127.84375 6.792969 C 127.171875 6.296875 126.832031 5.53125 126.832031 4.503906 C 126.832031 3.9375 126.949219 3.40625 127.175781 2.90625 C 127.40625 2.40625 127.707031 1.972656 128.085938 1.609375 C 128.460938 1.246094 128.902344 0.957031 129.398438 0.738281 C 129.894531 0.523438 130.425781 0.414062 130.988281 0.414062 C 131.824219 0.414062 132.578125 0.664062 133.25 1.164062 C 133.925781 1.664062 134.261719 2.425781 134.261719 3.449219 C 134.261719 4.019531 134.144531 4.550781 133.917969 5.050781 C 133.691406 5.550781 133.386719 5.980469 133.011719 6.347656 C 132.632812 6.710938 132.195312 7 131.699219 7.21875 C 131.199219 7.4375 130.671875 7.539062 130.101562 7.539062 Z M 130.101562 7.539062 "/>
<path style=" stroke:none;fill-rule:nonzero;fill:rgb(30.196078%,30.196078%,30.196078%);fill-opacity:1;" d="M 136.589844 11.101562 C 137.042969 10.96875 137.550781 10.808594 138.101562 10.636719 C 138.652344 10.460938 139.269531 10.300781 139.960938 10.152344 C 140.644531 10.003906 141.414062 9.882812 142.257812 9.785156 C 143.105469 9.691406 144.070312 9.644531 145.144531 9.644531 C 148.292969 9.644531 150.464844 10.5625 151.664062 12.398438 C 152.863281 14.234375 153.070312 16.746094 152.292969 19.929688 L 149.542969 31.429688 L 143.53125 31.429688 L 146.195312 20.171875 C 146.355469 19.46875 146.484375 18.789062 146.578125 18.125 C 146.675781 17.46875 146.667969 16.886719 146.558594 16.386719 C 146.453125 15.890625 146.199219 15.484375 145.8125 15.167969 C 145.417969 14.859375 144.824219 14.703125 144.015625 14.703125 C 143.234375 14.703125 142.445312 14.789062 141.636719 14.949219 L 137.71875 31.429688 L 131.703125 31.429688 Z M 136.589844 11.101562 "/>
</g>
</svg>
