<?xml version="1.0" encoding="UTF-8"?>
<svg xmlns="http://www.w3.org/2000/svg" xmlns:xlink="http://www.w3.org/1999/xlink" width="120pt" height="32pt" viewBox="0 0 120 32" version="1.1">
<g id="surface1">
<path style=" stroke:none;fill-rule:nonzero;fill:rgb(14.509804%,23.137255%,50.196078%);fill-opacity:1;" d="M 44.71875 6.546875 L 38.101562 6.546875 C 37.648438 6.546875 37.265625 6.875 37.195312 7.320312 L 34.515625 24.328125 C 34.460938 24.664062 34.722656 24.964844 35.0625 24.964844 L 38.222656 24.964844 C 38.675781 24.964844 39.0625 24.636719 39.132812 24.1875 L 39.851562 19.601562 C 39.921875 19.152344 40.308594 18.820312 40.757812 18.820312 L 42.855469 18.820312 C 47.214844 18.820312 49.730469 16.707031 50.390625 12.519531 C 50.683594 10.6875 50.398438 9.246094 49.546875 8.238281 C 48.601562 7.132812 46.9375 6.546875 44.71875 6.546875 Z M 45.484375 12.757812 C 45.121094 15.132812 43.304688 15.132812 41.554688 15.132812 L 40.554688 15.132812 L 41.253906 10.691406 C 41.296875 10.421875 41.53125 10.226562 41.796875 10.226562 L 42.257812 10.226562 C 43.453125 10.226562 44.578125 10.226562 45.164062 10.90625 C 45.507812 11.3125 45.617188 11.921875 45.484375 12.757812 Z M 45.484375 12.757812 "/>
<path style=" stroke:none;fill-rule:nonzero;fill:rgb(14.509804%,23.137255%,50.196078%);fill-opacity:1;" d="M 64.503906 12.679688 L 61.335938 12.679688 C 61.0625 12.679688 60.832031 12.875 60.789062 13.144531 L 60.648438 14.03125 L 60.429688 13.710938 C 59.742188 12.710938 58.210938 12.382812 56.683594 12.382812 C 53.179688 12.382812 50.191406 15.039062 49.609375 18.765625 C 49.304688 20.625 49.734375 22.40625 50.789062 23.644531 C 51.753906 24.785156 53.136719 25.257812 54.78125 25.257812 C 57.601562 25.257812 59.167969 23.445312 59.167969 23.445312 L 59.027344 24.324219 C 58.972656 24.664062 59.234375 24.964844 59.570312 24.964844 L 62.425781 24.964844 C 62.878906 24.964844 63.261719 24.632812 63.335938 24.1875 L 65.046875 13.316406 C 65.101562 12.984375 64.84375 12.679688 64.503906 12.679688 Z M 60.085938 18.859375 C 59.78125 20.671875 58.34375 21.890625 56.507812 21.890625 C 55.589844 21.890625 54.855469 21.59375 54.382812 21.035156 C 53.914062 20.476562 53.734375 19.6875 53.882812 18.804688 C 54.171875 17.007812 55.632812 15.75 57.4375 15.75 C 58.335938 15.75 59.070312 16.046875 59.550781 16.613281 C 60.03125 17.183594 60.226562 17.980469 60.085938 18.859375 Z M 60.085938 18.859375 "/>
<path style=" stroke:none;fill-rule:nonzero;fill:rgb(14.509804%,23.137255%,50.196078%);fill-opacity:1;" d="M 81.382812 12.679688 L 78.199219 12.679688 C 77.894531 12.679688 77.609375 12.828125 77.4375 13.085938 L 73.046875 19.566406 L 71.179688 13.335938 C 71.0625 12.945312 70.707031 12.679688 70.296875 12.679688 L 67.171875 12.679688 C 66.789062 12.679688 66.523438 13.050781 66.648438 13.410156 L 70.15625 23.726562 L 66.859375 28.390625 C 66.597656 28.757812 66.859375 29.265625 67.304688 29.265625 L 70.488281 29.265625 C 70.789062 29.265625 71.070312 29.117188 71.242188 28.867188 L 81.835938 13.546875 C 82.089844 13.179688 81.828125 12.679688 81.382812 12.679688 Z M 81.382812 12.679688 "/>
<path style=" stroke:none;fill-rule:nonzero;fill:rgb(9.019608%,60.784314%,84.313725%);fill-opacity:1;" d="M 91.929688 6.546875 L 85.308594 6.546875 C 84.859375 6.546875 84.46875 6.875 84.398438 7.320312 L 81.726562 24.328125 C 81.671875 24.664062 81.929688 24.964844 82.265625 24.964844 L 85.664062 24.964844 C 85.980469 24.964844 86.25 24.734375 86.296875 24.421875 L 87.058594 19.601562 C 87.128906 19.152344 87.515625 18.820312 87.96875 18.820312 L 90.0625 18.820312 C 94.421875 18.820312 96.9375 16.707031 97.59375 12.519531 C 97.890625 10.6875 97.609375 9.246094 96.75 8.238281 C 95.8125 7.132812 94.140625 6.546875 91.929688 6.546875 Z M 92.691406 12.757812 C 92.328125 15.132812 90.515625 15.132812 88.757812 15.132812 L 87.761719 15.132812 L 88.464844 10.691406 C 88.507812 10.421875 88.734375 10.226562 89.007812 10.226562 L 89.464844 10.226562 C 90.660156 10.226562 91.789062 10.226562 92.371094 10.90625 C 92.71875 11.3125 92.824219 11.921875 92.691406 12.757812 Z M 92.691406 12.757812 "/>
<path style=" stroke:none;fill-rule:nonzero;fill:rgb(9.019608%,60.784314%,84.313725%);fill-opacity:1;" d="M 111.710938 12.679688 L 108.542969 12.679688 C 108.273438 12.679688 108.039062 12.875 108 13.144531 L 107.859375 14.03125 L 107.636719 13.710938 C 106.949219 12.710938 105.421875 12.382812 103.894531 12.382812 C 100.390625 12.382812 97.398438 15.039062 96.820312 18.765625 C 96.515625 20.625 96.945312 22.40625 98 23.644531 C 98.96875 24.785156 100.34375 25.257812 101.992188 25.257812 C 104.8125 25.257812 106.375 23.445312 106.375 23.445312 L 106.234375 24.324219 C 106.179688 24.664062 106.441406 24.964844 106.78125 24.964844 L 109.632812 24.964844 C 110.085938 24.964844 110.472656 24.632812 110.542969 24.1875 L 112.257812 13.316406 C 112.308594 12.984375 112.050781 12.679688 111.710938 12.679688 Z M 107.292969 18.859375 C 106.988281 20.671875 105.546875 21.890625 103.71875 21.890625 C 102.796875 21.890625 102.0625 21.59375 101.585938 21.035156 C 101.121094 20.476562 100.945312 19.6875 101.09375 18.804688 C 101.378906 17.007812 102.835938 15.75 104.640625 15.75 C 105.542969 15.75 106.273438 16.046875 106.757812 16.613281 C 107.242188 17.183594 107.433594 17.980469 107.292969 18.859375 Z M 107.292969 18.859375 "/>
<path style=" stroke:none;fill-rule:nonzero;fill:rgb(9.019608%,60.784314%,84.313725%);fill-opacity:1;" d="M 115.445312 7.011719 L 112.730469 24.328125 C 112.679688 24.664062 112.9375 24.964844 113.273438 24.964844 L 116.007812 24.964844 C 116.460938 24.964844 116.84375 24.636719 116.914062 24.1875 L 119.59375 7.179688 C 119.648438 6.847656 119.386719 6.542969 119.046875 6.542969 L 115.992188 6.542969 C 115.71875 6.546875 115.488281 6.742188 115.445312 7.011719 Z M 115.445312 7.011719 "/>
<path style=" stroke:none;fill-rule:nonzero;fill:rgb(14.509804%,23.137255%,50.196078%);fill-opacity:1;" d="M 7.03125 28.273438 L 7.539062 25.046875 L 6.410156 25.023438 L 1.027344 25.023438 L 4.765625 1.25 C 4.78125 1.179688 4.820312 1.113281 4.875 1.066406 C 4.929688 1.019531 5 0.992188 5.070312 0.992188 L 14.148438 0.992188 C 17.164062 0.992188 19.242188 1.621094 20.328125 2.859375 C 20.835938 3.445312 21.164062 4.050781 21.320312 4.71875 C 21.484375 5.421875 21.484375 6.261719 21.324219 7.285156 L 21.3125 7.359375 L 21.3125 8.015625 L 21.820312 8.304688 C 22.25 8.53125 22.59375 8.792969 22.851562 9.09375 C 23.289062 9.585938 23.570312 10.21875 23.6875 10.96875 C 23.8125 11.742188 23.773438 12.65625 23.570312 13.695312 C 23.335938 14.890625 22.960938 15.929688 22.453125 16.78125 C 21.988281 17.570312 21.394531 18.21875 20.6875 18.722656 C 20.015625 19.203125 19.214844 19.566406 18.3125 19.796875 C 17.433594 20.027344 16.433594 20.140625 15.335938 20.140625 L 14.632812 20.140625 C 14.125 20.140625 13.632812 20.324219 13.25 20.652344 C 12.863281 20.984375 12.609375 21.441406 12.53125 21.9375 L 12.476562 22.226562 L 11.582031 27.90625 L 11.542969 28.117188 C 11.53125 28.179688 11.515625 28.214844 11.484375 28.234375 C 11.460938 28.257812 11.429688 28.273438 11.390625 28.273438 Z M 7.03125 28.273438 "/>
<path style=" stroke:none;fill-rule:nonzero;fill:rgb(9.019608%,60.784314%,84.313725%);fill-opacity:1;" d="M 22.304688 7.4375 C 22.277344 7.609375 22.246094 7.785156 22.210938 7.96875 C 21.015625 14.125 16.921875 16.253906 11.6875 16.253906 L 9.023438 16.253906 C 8.382812 16.253906 7.84375 16.71875 7.746094 17.351562 L 6.382812 26.015625 L 6 28.472656 C 5.929688 28.890625 6.25 29.261719 6.671875 29.261719 L 11.390625 29.261719 C 11.953125 29.261719 12.429688 28.855469 12.515625 28.304688 L 12.5625 28.0625 L 13.453125 22.40625 L 13.507812 22.09375 C 13.59375 21.539062 14.070312 21.132812 14.632812 21.132812 L 15.335938 21.132812 C 19.914062 21.132812 23.496094 19.273438 24.542969 13.882812 C 24.980469 11.632812 24.753906 9.757812 23.597656 8.433594 C 23.25 8.035156 22.8125 7.703125 22.304688 7.4375 Z M 22.304688 7.4375 "/>
<path style=" stroke:none;fill-rule:nonzero;fill:rgb(13.333333%,17.647059%,39.607843%);fill-opacity:1;" d="M 21.054688 6.933594 C 20.867188 6.882812 20.679688 6.832031 20.484375 6.789062 C 20.292969 6.746094 20.09375 6.710938 19.890625 6.675781 C 19.171875 6.558594 18.382812 6.503906 17.539062 6.503906 L 10.425781 6.503906 C 10.25 6.503906 10.085938 6.542969 9.9375 6.617188 C 9.609375 6.773438 9.363281 7.085938 9.304688 7.464844 L 7.789062 17.070312 L 7.746094 17.351562 C 7.84375 16.71875 8.382812 16.253906 9.023438 16.253906 L 11.6875 16.253906 C 16.921875 16.253906 21.015625 14.125 22.210938 7.96875 C 22.25 7.785156 22.277344 7.609375 22.304688 7.4375 C 22 7.273438 21.671875 7.136719 21.320312 7.019531 C 21.234375 6.992188 21.140625 6.960938 21.054688 6.933594 Z M 21.054688 6.933594 "/>
<path style=" stroke:none;fill-rule:nonzero;fill:rgb(14.509804%,23.137255%,50.196078%);fill-opacity:1;" d="M 9.304688 7.464844 C 9.363281 7.085938 9.609375 6.773438 9.9375 6.617188 C 10.085938 6.546875 10.25 6.503906 10.425781 6.503906 L 17.539062 6.503906 C 18.382812 6.503906 19.171875 6.5625 19.890625 6.675781 C 20.09375 6.710938 20.292969 6.75 20.484375 6.789062 C 20.679688 6.835938 20.867188 6.882812 21.054688 6.9375 C 21.140625 6.960938 21.234375 6.992188 21.320312 7.019531 C 21.671875 7.136719 22 7.273438 22.304688 7.4375 C 22.664062 5.15625 22.304688 3.609375 21.074219 2.207031 C 19.71875 0.664062 17.277344 0 14.148438 0 L 5.070312 0 C 4.433594 0 3.890625 0.464844 3.789062 1.101562 L 0.0078125 25.113281 C -0.0625 25.585938 0.300781 26.015625 0.78125 26.015625 L 6.382812 26.015625 L 7.789062 17.070312 Z M 9.304688 7.464844 "/>
</g>
</svg>
