<?xml version="1.0" encoding="UTF-8"?>
<svg xmlns="http://www.w3.org/2000/svg" xmlns:xlink="http://www.w3.org/1999/xlink" width="99pt" height="32pt" viewBox="0 0 99 32" version="1.1">
<g id="surface1">
<path style=" stroke:none;fill-rule:nonzero;fill:rgb(12.941176%,76.078431%,36.862745%);fill-opacity:1;" d="M 20.316406 25.820312 L 24.933594 25.820312 L 24.933594 12.328125 L 20.316406 12.328125 Z M 26.53125 3.140625 L 23.421875 3.140625 L 23.421875 6.261719 L 26.53125 6.261719 Z M 9.082031 4.660156 L 4.621094 4.660156 L 4.621094 8.574219 L 8.761719 8.574219 C 11.394531 8.574219 12.90625 9.851562 12.90625 12.246094 C 12.90625 14.640625 11.394531 16 8.761719 16 L 4.621094 16 L 4.621094 8.65625 L 0.00390625 8.65625 L 0.00390625 25.820312 L 4.621094 25.820312 L 4.621094 19.914062 L 9.003906 19.914062 C 14.34375 19.914062 17.449219 17.039062 17.449219 12.085938 C 17.449219 7.453125 14.421875 4.660156 9.082031 4.660156 Z M 29.640625 0.03125 L 20.316406 0.03125 L 20.316406 9.371094 L 29.640625 9.371094 Z M 28.125 7.777344 L 21.910156 7.777344 L 21.910156 1.546875 L 28.125 1.546875 Z M 55.214844 4.660156 L 50.992188 4.660156 L 50.992188 8.574219 L 54.976562 8.574219 C 57.605469 8.574219 59.121094 9.851562 59.121094 12.246094 C 59.121094 14.640625 57.605469 16 54.976562 16 L 50.992188 16 L 50.992188 8.65625 L 46.378906 8.65625 L 46.378906 25.820312 L 50.992188 25.820312 L 50.992188 19.914062 L 55.214844 19.914062 C 60.554688 19.914062 63.664062 17.039062 63.664062 12.085938 C 63.664062 7.453125 60.554688 4.660156 55.214844 4.660156 Z M 94.019531 9.609375 L 90.035156 19.671875 L 86.050781 9.609375 L 81.269531 9.609375 L 87.644531 25.820312 L 85.175781 31.96875 L 90.035156 31.96875 L 98.796875 9.609375 Z M 73.304688 9.53125 C 70.515625 9.53125 68.363281 10.171875 65.972656 11.367188 L 67.40625 14.5625 C 69.078125 13.601562 70.753906 13.125 72.265625 13.125 C 74.496094 13.125 75.613281 14.085938 75.613281 15.839844 L 75.613281 16.160156 L 71.148438 16.160156 C 67.164062 16.160156 65.011719 17.996094 65.011719 21.03125 C 65.011719 23.984375 67.085938 26.0625 70.589844 26.0625 C 72.820312 26.0625 74.417969 25.265625 75.6875 23.90625 L 75.6875 25.664062 L 80.234375 25.664062 L 80.234375 15.121094 C 80.082031 11.6875 77.605469 9.53125 73.304688 9.53125 Z M 76.011719 20.394531 C 75.535156 21.75 74.179688 22.867188 72.269531 22.867188 C 70.675781 22.867188 69.71875 22.070312 69.71875 20.792969 C 69.71875 19.515625 70.59375 18.957031 72.347656 18.957031 L 76.011719 18.957031 Z M 36.730469 22.308594 C 34.5 22.308594 32.90625 20.550781 32.90625 17.914062 C 32.90625 15.359375 34.5 13.601562 36.730469 13.601562 C 38.324219 13.601562 39.519531 14.242188 40.398438 15.359375 L 43.507812 13.125 C 42.074219 10.96875 39.605469 9.691406 36.496094 9.691406 C 31.636719 9.609375 28.289062 12.964844 28.289062 17.914062 C 28.289062 22.867188 31.636719 26.140625 36.496094 26.140625 C 39.84375 26.140625 42.316406 24.78125 43.667969 22.546875 L 40.480469 20.390625 C 39.679688 21.671875 38.40625 22.308594 36.730469 22.308594 Z M 36.730469 22.308594 "/>
</g>
</svg>