<?xml version="1.0" encoding="UTF-8"?>
<svg xmlns="http://www.w3.org/2000/svg" xmlns:xlink="http://www.w3.org/1999/xlink" width="89pt" height="32pt" viewBox="0 0 89 32" version="1.1">
<g id="surface1">
<path style="fill:none;stroke-width:6.26;stroke-linecap:round;stroke-linejoin:round;stroke:rgb(57.647059%,58.431373%,59.607843%);stroke-opacity:1;stroke-miterlimit:4;" d="M 393.231215 316.26166 L 393.231215 121.97932 C 393.231215 86.234017 422.201299 57.273703 457.911533 57.273703 L 515.307466 57.356446 C 550.933971 57.43919 579.778463 86.358133 579.778463 121.97932 L 579.778463 163.309827 C 579.778463 199.055129 550.808378 228.056816 515.05628 228.056816 L 434.007027 228.056816 " transform="matrix(0.0933075,0,0,0.094418,0,0.0103003)"/>
<path style="fill:none;stroke-width:6.26;stroke-linecap:round;stroke-linejoin:round;stroke:rgb(57.647059%,58.431373%,59.607843%);stroke-opacity:1;stroke-miterlimit:4;" d="M 595.812483 57.273703 L 620.679868 57.273703 C 635.332367 57.273703 647.221823 69.147432 647.221823 83.834448 L 647.221823 228.925625 " transform="matrix(0.0933075,0,0,0.094418,0,0.0103003)"/>
<path style=" stroke:none;fill-rule:nonzero;fill:rgb(19.607843%,73.72549%,67.843137%);fill-opacity:1;" d="M 59.894531 3.296875 L 58.839844 2.230469 C 58.578125 1.96875 58.578125 1.539062 58.839844 1.273438 L 59.894531 0.210938 C 60.15625 -0.0546875 60.578125 -0.0546875 60.839844 0.210938 L 61.894531 1.273438 C 62.152344 1.539062 62.152344 1.96875 61.894531 2.230469 L 60.835938 3.296875 C 60.574219 3.5625 60.152344 3.5625 59.890625 3.296875 "/>
<path style="fill:none;stroke-width:6.26;stroke-linecap:round;stroke-linejoin:round;stroke:rgb(57.647059%,58.431373%,59.607843%);stroke-opacity:1;stroke-miterlimit:4;" d="M 694.988971 57.149587 L 719.688898 57.149587 C 732.373776 57.149587 744.556283 62.155584 753.515239 71.133282 L 811.204222 128.847052 C 814.80455 132.446405 819.660807 134.473627 824.76825 134.473627 C 829.833828 134.473627 834.690085 132.446405 838.290413 128.847052 L 895.811939 71.340141 C 904.770896 62.403815 916.911538 57.356446 929.63828 57.356446 L 949.691272 57.356446 " transform="matrix(0.0933075,0,0,0.094418,0,0.0103003)"/>
<path style="fill:none;stroke-width:6.26;stroke-linecap:round;stroke-linejoin:round;stroke:rgb(57.647059%,58.431373%,59.607843%);stroke-opacity:1;stroke-miterlimit:4;" d="M 694.988971 227.643097 L 719.688898 227.643097 C 732.373776 227.684469 744.556283 222.6371 753.515239 213.659402 L 811.204222 155.945632 C 818.697929 148.498694 830.796707 148.498694 838.290413 155.945632 L 895.811939 213.452543 C 904.770896 222.430241 916.911538 227.436238 929.63828 227.436238 L 949.691272 227.436238 " transform="matrix(0.0933075,0,0,0.094418,0,0.0103003)"/>
<path style=" stroke:none;fill-rule:nonzero;fill:rgb(19.607843%,73.72549%,67.843137%);fill-opacity:1;" d="M 22.964844 24.984375 C 21.816406 24.992188 20.71875 24.53125 19.90625 23.710938 L 15.488281 19.234375 C 15.164062 18.921875 14.652344 18.921875 14.328125 19.234375 L 9.894531 23.71875 C 9.085938 24.546875 7.984375 25.007812 6.835938 25 L 5.972656 25 L 11.570312 30.667969 C 13.320312 32.433594 16.148438 32.433594 17.898438 30.667969 L 23.507812 24.992188 Z M 22.964844 24.984375 "/>
<path style=" stroke:none;fill-rule:nonzero;fill:rgb(19.607843%,73.72549%,67.843137%);fill-opacity:1;" d="M 6.835938 9.179688 C 7.984375 9.171875 9.085938 9.632812 9.894531 10.460938 L 14.328125 14.945312 C 14.648438 15.269531 15.167969 15.269531 15.488281 14.945312 L 19.90625 10.476562 C 20.714844 9.652344 21.816406 9.1875 22.964844 9.195312 L 23.496094 9.195312 L 17.886719 3.515625 C 16.140625 1.75 13.308594 1.75 11.5625 3.515625 L 5.972656 9.179688 Z M 6.835938 9.179688 "/>
<path style=" stroke:none;fill-rule:nonzero;fill:rgb(19.607843%,73.72549%,67.843137%);fill-opacity:1;" d="M 28.136719 13.890625 L 24.746094 10.460938 C 24.671875 10.492188 24.589844 10.507812 24.507812 10.507812 L 22.964844 10.507812 C 22.164062 10.507812 21.394531 10.835938 20.828125 11.40625 L 16.410156 15.875 C 15.582031 16.710938 14.238281 16.710938 13.410156 15.875 L 8.976562 11.390625 C 8.40625 10.816406 7.640625 10.492188 6.835938 10.492188 L 4.945312 10.492188 C 4.867188 10.488281 4.789062 10.472656 4.71875 10.445312 L 1.304688 13.890625 C -0.4375 15.65625 -0.4375 18.523438 1.304688 20.292969 L 4.710938 23.734375 C 4.78125 23.707031 4.859375 23.691406 4.9375 23.6875 L 6.835938 23.6875 C 7.640625 23.6875 8.40625 23.367188 8.976562 22.792969 L 13.410156 18.304688 C 14.210938 17.496094 15.609375 17.496094 16.410156 18.304688 L 20.828125 22.773438 C 21.394531 23.347656 22.164062 23.671875 22.964844 23.671875 L 24.507812 23.671875 C 24.589844 23.671875 24.671875 23.6875 24.746094 23.71875 L 28.136719 20.289062 C 29.886719 18.523438 29.886719 15.65625 28.136719 13.890625 "/>
<path style=" stroke:none;fill-rule:nonzero;fill:rgb(57.647059%,58.431373%,59.607843%);fill-opacity:1;" d="M 41.292969 28.3125 C 41.011719 28.324219 40.734375 28.367188 40.464844 28.4375 L 40.464844 29.554688 C 40.671875 29.632812 40.886719 29.667969 41.109375 29.667969 C 41.664062 29.667969 41.925781 29.476562 41.925781 28.984375 C 41.925781 28.519531 41.710938 28.3125 41.292969 28.3125 M 40.273438 30.390625 L 40.273438 28.179688 L 40.429688 28.179688 L 40.445312 28.273438 C 40.726562 28.195312 41.015625 28.148438 41.308594 28.132812 C 41.511719 28.117188 41.710938 28.175781 41.875 28.296875 C 42.0625 28.453125 42.125 28.707031 42.125 28.984375 C 42.125 29.257812 42.03125 29.542969 41.769531 29.695312 C 41.570312 29.796875 41.351562 29.84375 41.128906 29.835938 C 40.902344 29.835938 40.679688 29.804688 40.464844 29.734375 L 40.464844 30.382812 Z M 40.273438 30.390625 "/>
<path style=" stroke:none;fill-rule:nonzero;fill:rgb(57.647059%,58.431373%,59.607843%);fill-opacity:1;" d="M 43.515625 28.304688 C 42.960938 28.304688 42.714844 28.480469 42.714844 28.976562 C 42.714844 29.453125 42.957031 29.667969 43.515625 29.667969 C 44.070312 29.667969 44.3125 29.492188 44.3125 29 C 44.3125 28.523438 44.070312 28.304688 43.515625 28.304688 M 44.226562 29.667969 C 44.039062 29.800781 43.796875 29.839844 43.515625 29.839844 C 43.234375 29.839844 42.980469 29.796875 42.800781 29.667969 C 42.597656 29.523438 42.515625 29.289062 42.515625 28.988281 C 42.515625 28.6875 42.597656 28.453125 42.800781 28.304688 C 42.980469 28.171875 43.226562 28.132812 43.515625 28.132812 C 43.800781 28.132812 44.042969 28.171875 44.226562 28.304688 C 44.433594 28.453125 44.511719 28.695312 44.511719 28.984375 C 44.511719 29.273438 44.429688 29.523438 44.226562 29.667969 "/>
<path style=" stroke:none;fill-rule:nonzero;fill:rgb(57.647059%,58.431373%,59.607843%);fill-opacity:1;" d="M 46.851562 29.796875 L 46.230469 28.453125 L 46.21875 28.453125 L 45.613281 29.796875 L 45.441406 29.796875 L 44.789062 28.179688 L 44.992188 28.179688 L 45.539062 29.535156 L 45.554688 29.535156 L 46.148438 28.179688 L 46.320312 28.179688 L 46.929688 29.535156 L 46.941406 29.535156 L 47.476562 28.179688 L 47.679688 28.179688 L 47.019531 29.796875 Z M 46.851562 29.796875 "/>
<path style=" stroke:none;fill-rule:nonzero;fill:rgb(57.647059%,58.431373%,59.607843%);fill-opacity:1;" d="M 48.871094 28.300781 C 48.359375 28.300781 48.183594 28.53125 48.152344 28.867188 L 49.585938 28.867188 C 49.570312 28.5 49.386719 28.300781 48.871094 28.300781 M 48.863281 29.839844 C 48.554688 29.839844 48.359375 29.796875 48.199219 29.660156 C 48.011719 29.496094 47.949219 29.257812 47.949219 28.988281 C 47.949219 28.71875 48.035156 28.453125 48.246094 28.296875 C 48.433594 28.179688 48.652344 28.121094 48.871094 28.132812 C 49.09375 28.117188 49.316406 28.171875 49.511719 28.289062 C 49.738281 28.445312 49.785156 28.722656 49.785156 29.035156 L 48.144531 29.035156 C 48.152344 29.367188 48.261719 29.664062 48.882812 29.664062 C 49.160156 29.65625 49.433594 29.625 49.707031 29.570312 L 49.707031 29.738281 C 49.429688 29.796875 49.148438 29.828125 48.867188 29.835938 "/>
<path style=" stroke:none;fill-rule:nonzero;fill:rgb(57.647059%,58.431373%,59.607843%);fill-opacity:1;" d="M 50.320312 29.796875 L 50.320312 28.179688 L 50.472656 28.179688 L 50.488281 28.273438 C 50.828125 28.1875 50.984375 28.132812 51.28125 28.132812 L 51.304688 28.132812 L 51.304688 28.3125 L 51.261719 28.3125 C 51.007812 28.3125 50.859375 28.34375 50.507812 28.4375 L 50.507812 29.792969 Z M 50.320312 29.796875 "/>
<path style=" stroke:none;fill-rule:nonzero;fill:rgb(57.647059%,58.431373%,59.607843%);fill-opacity:1;" d="M 52.390625 28.300781 C 51.875 28.300781 51.703125 28.53125 51.671875 28.867188 L 53.109375 28.867188 C 53.089844 28.5 52.90625 28.300781 52.390625 28.300781 M 52.382812 29.839844 C 52.078125 29.839844 51.875 29.796875 51.71875 29.660156 C 51.53125 29.496094 51.46875 29.257812 51.46875 28.988281 C 51.46875 28.71875 51.554688 28.453125 51.765625 28.296875 C 51.953125 28.179688 52.167969 28.121094 52.390625 28.132812 C 52.613281 28.117188 52.835938 28.171875 53.027344 28.289062 C 53.261719 28.445312 53.308594 28.722656 53.308594 29.035156 L 51.664062 29.035156 C 51.671875 29.367188 51.777344 29.664062 52.398438 29.664062 C 52.675781 29.65625 52.953125 29.625 53.226562 29.570312 L 53.226562 29.738281 C 52.949219 29.796875 52.667969 29.828125 52.386719 29.835938 "/>
<path style=" stroke:none;fill-rule:nonzero;fill:rgb(57.647059%,58.431373%,59.607843%);fill-opacity:1;" d="M 55.347656 28.414062 C 55.140625 28.339844 54.925781 28.304688 54.703125 28.304688 C 54.152344 28.304688 53.886719 28.492188 53.886719 28.988281 C 53.886719 29.453125 54.105469 29.660156 54.519531 29.660156 C 54.800781 29.648438 55.078125 29.605469 55.347656 29.535156 Z M 55.386719 29.796875 L 55.367188 29.699219 C 55.085938 29.777344 54.796875 29.824219 54.503906 29.84375 C 54.300781 29.859375 54.101562 29.796875 53.9375 29.671875 C 53.75 29.515625 53.6875 29.265625 53.6875 28.992188 C 53.6875 28.703125 53.78125 28.429688 54.042969 28.28125 C 54.242188 28.179688 54.464844 28.128906 54.6875 28.132812 C 54.914062 28.140625 55.136719 28.171875 55.347656 28.234375 L 55.347656 27.496094 L 55.535156 27.496094 L 55.535156 29.796875 Z M 55.386719 29.796875 "/>
<path style=" stroke:none;fill-rule:nonzero;fill:rgb(57.647059%,58.431373%,59.607843%);fill-opacity:1;" d="M 58.273438 28.3125 C 57.996094 28.324219 57.714844 28.367188 57.445312 28.4375 L 57.445312 29.554688 C 57.652344 29.632812 57.871094 29.667969 58.089844 29.667969 C 58.644531 29.667969 58.90625 29.476562 58.90625 28.984375 C 58.90625 28.519531 58.695312 28.3125 58.273438 28.3125 M 58.753906 29.695312 C 58.554688 29.796875 58.332031 29.84375 58.109375 29.839844 C 57.867188 29.835938 57.625 29.796875 57.394531 29.71875 L 57.386719 29.796875 L 57.257812 29.796875 L 57.257812 27.496094 L 57.445312 27.496094 L 57.445312 28.265625 C 57.722656 28.195312 58.003906 28.148438 58.289062 28.132812 C 58.496094 28.117188 58.695312 28.179688 58.855469 28.296875 C 59.042969 28.453125 59.105469 28.710938 59.105469 28.984375 C 59.105469 29.257812 59.015625 29.546875 58.753906 29.695312 "/>
<path style=" stroke:none;fill-rule:nonzero;fill:rgb(57.647059%,58.431373%,59.607843%);fill-opacity:1;" d="M 59.355469 30.414062 L 59.355469 30.234375 C 59.449219 30.246094 59.53125 30.253906 59.59375 30.253906 C 59.824219 30.253906 59.96875 30.1875 60.09375 29.921875 L 60.152344 29.789062 L 59.3125 28.171875 L 59.53125 28.171875 L 60.246094 29.570312 L 60.257812 29.570312 L 60.9375 28.171875 L 61.148438 28.171875 L 60.253906 29.992188 C 60.085938 30.320312 59.910156 30.429688 59.582031 30.429688 C 59.507812 30.429688 59.429688 30.421875 59.355469 30.414062 "/>
<path style=" stroke:none;fill-rule:nonzero;fill:rgb(57.647059%,58.431373%,59.607843%);fill-opacity:1;" d="M 63.730469 28.871094 L 63.109375 28.871094 L 63.109375 29.4375 L 63.730469 29.4375 C 64.15625 29.4375 64.316406 29.390625 64.316406 29.15625 C 64.316406 28.902344 64.09375 28.871094 63.726562 28.871094 M 63.613281 27.960938 L 63.109375 27.960938 L 63.109375 28.53125 L 63.617188 28.53125 C 64.035156 28.53125 64.207031 28.484375 64.207031 28.242188 C 64.207031 27.984375 63.992188 27.960938 63.613281 27.960938 M 64.578125 29.648438 C 64.347656 29.796875 64.070312 29.800781 63.570312 29.800781 L 62.621094 29.800781 L 62.621094 27.601562 L 63.546875 27.601562 C 63.980469 27.601562 64.246094 27.609375 64.46875 27.742188 C 64.617188 27.832031 64.703125 28 64.691406 28.179688 C 64.691406 28.40625 64.597656 28.5625 64.347656 28.664062 L 64.347656 28.675781 C 64.625 28.742188 64.808594 28.882812 64.808594 29.195312 C 64.820312 29.375 64.730469 29.550781 64.578125 29.640625 "/>
<path style=" stroke:none;fill-rule:nonzero;fill:rgb(57.647059%,58.431373%,59.607843%);fill-opacity:1;" d="M 66.699219 29.117188 C 66.511719 29.101562 66.328125 29.089844 66.125 29.089844 C 65.796875 29.089844 65.683594 29.15625 65.683594 29.308594 C 65.683594 29.460938 65.777344 29.523438 66.03125 29.523438 C 66.253906 29.515625 66.480469 29.484375 66.699219 29.429688 Z M 66.792969 29.796875 L 66.78125 29.699219 C 66.5 29.78125 66.207031 29.828125 65.914062 29.84375 C 65.746094 29.851562 65.574219 29.8125 65.429688 29.722656 C 65.300781 29.617188 65.238281 29.449219 65.253906 29.28125 C 65.273438 29.117188 65.375 28.96875 65.523438 28.894531 C 65.691406 28.8125 65.914062 28.804688 66.121094 28.804688 C 66.289062 28.804688 66.511719 28.816406 66.699219 28.828125 L 66.699219 28.800781 C 66.699219 28.546875 66.535156 28.464844 66.085938 28.464844 C 65.914062 28.464844 65.699219 28.472656 65.496094 28.492188 L 65.496094 28.164062 C 65.722656 28.148438 65.976562 28.132812 66.183594 28.132812 C 66.464844 28.132812 66.75 28.15625 66.929688 28.285156 C 67.113281 28.414062 67.148438 28.601562 67.148438 28.839844 L 67.148438 29.796875 Z M 66.792969 29.796875 "/>
<path style=" stroke:none;fill-rule:nonzero;fill:rgb(57.647059%,58.431373%,59.607843%);fill-opacity:1;" d="M 69.234375 29.796875 L 69.234375 28.902344 C 69.234375 28.609375 69.085938 28.5 68.820312 28.5 C 68.601562 28.511719 68.378906 28.546875 68.167969 28.601562 L 68.167969 29.796875 L 67.722656 29.796875 L 67.722656 28.179688 L 68.082031 28.179688 L 68.101562 28.28125 C 68.378906 28.195312 68.664062 28.148438 68.953125 28.132812 C 69.152344 28.117188 69.347656 28.175781 69.503906 28.296875 C 69.628906 28.414062 69.675781 28.574219 69.675781 28.804688 L 69.675781 29.796875 Z M 69.234375 29.796875 "/>
<path style=" stroke:none;fill-rule:nonzero;fill:rgb(57.647059%,58.431373%,59.607843%);fill-opacity:1;" d="M 70.9375 29.839844 C 70.730469 29.839844 70.507812 29.8125 70.34375 29.671875 C 70.144531 29.507812 70.089844 29.257812 70.089844 28.984375 C 70.089844 28.726562 70.171875 28.449219 70.414062 28.292969 C 70.617188 28.160156 70.863281 28.132812 71.117188 28.132812 C 71.304688 28.132812 71.484375 28.144531 71.679688 28.164062 L 71.679688 28.507812 C 71.515625 28.492188 71.324219 28.484375 71.167969 28.484375 C 70.742188 28.484375 70.542969 28.617188 70.542969 28.988281 C 70.542969 29.335938 70.691406 29.488281 71.042969 29.488281 C 71.269531 29.480469 71.492188 29.453125 71.710938 29.40625 L 71.710938 29.734375 C 71.457031 29.796875 71.195312 29.832031 70.933594 29.839844 "/>
<path style=" stroke:none;fill-rule:nonzero;fill:rgb(57.647059%,58.431373%,59.607843%);fill-opacity:1;" d="M 73.035156 28.472656 C 72.609375 28.472656 72.425781 28.609375 72.425781 28.976562 C 72.425781 29.34375 72.609375 29.5 73.035156 29.5 C 73.460938 29.5 73.636719 29.367188 73.636719 29 C 73.636719 28.632812 73.460938 28.472656 73.035156 28.472656 M 73.800781 29.671875 C 73.605469 29.804688 73.347656 29.839844 73.035156 29.839844 C 72.71875 29.839844 72.457031 29.800781 72.265625 29.671875 C 72.042969 29.523438 71.964844 29.28125 71.964844 28.988281 C 71.964844 28.695312 72.042969 28.449219 72.265625 28.300781 C 72.457031 28.171875 72.714844 28.132812 73.035156 28.132812 C 73.355469 28.132812 73.605469 28.171875 73.800781 28.300781 C 74.023438 28.449219 74.097656 28.695312 74.097656 28.984375 C 74.097656 29.273438 74.019531 29.523438 73.800781 29.671875 "/>
<path style=" stroke:none;fill-rule:nonzero;fill:rgb(57.647059%,58.431373%,59.607843%);fill-opacity:1;" d="M 76.675781 29.839844 C 76.40625 29.839844 76.113281 29.796875 75.898438 29.609375 C 75.636719 29.394531 75.558594 29.058594 75.558594 28.695312 C 75.558594 28.375 75.660156 27.988281 75.996094 27.765625 C 76.257812 27.59375 76.585938 27.554688 76.914062 27.554688 C 77.15625 27.554688 77.402344 27.570312 77.671875 27.59375 L 77.671875 27.988281 C 77.441406 27.96875 77.15625 27.953125 76.933594 27.953125 C 76.316406 27.953125 76.054688 28.1875 76.054688 28.695312 C 76.054688 29.203125 76.296875 29.441406 76.753906 29.441406 C 77.078125 29.429688 77.402344 29.386719 77.71875 29.3125 L 77.71875 29.703125 C 77.375 29.78125 77.027344 29.828125 76.675781 29.839844 "/>
<path style=" stroke:none;fill-rule:nonzero;fill:rgb(57.647059%,58.431373%,59.607843%);fill-opacity:1;" d="M 79.03125 28.421875 C 78.660156 28.421875 78.515625 28.554688 78.488281 28.796875 L 79.566406 28.796875 C 79.554688 28.535156 79.398438 28.421875 79.03125 28.421875 M 78.964844 29.835938 C 78.703125 29.835938 78.464844 29.804688 78.285156 29.65625 C 78.109375 29.507812 78.03125 29.257812 78.03125 28.984375 C 78.03125 28.734375 78.109375 28.460938 78.332031 28.296875 C 78.527344 28.15625 78.777344 28.132812 79.03125 28.132812 C 79.257812 28.132812 79.527344 28.15625 79.722656 28.292969 C 79.980469 28.476562 80.003906 28.757812 80.003906 29.089844 L 78.488281 29.089844 C 78.496094 29.335938 78.625 29.496094 79.078125 29.496094 C 79.363281 29.492188 79.648438 29.460938 79.929688 29.414062 L 79.929688 29.730469 C 79.609375 29.792969 79.289062 29.828125 78.964844 29.835938 "/>
<path style=" stroke:none;fill-rule:nonzero;fill:rgb(57.647059%,58.431373%,59.607843%);fill-opacity:1;" d="M 81.992188 29.796875 L 81.992188 28.902344 C 81.992188 28.609375 81.84375 28.5 81.578125 28.5 C 81.355469 28.511719 81.136719 28.546875 80.921875 28.601562 L 80.921875 29.796875 L 80.476562 29.796875 L 80.476562 28.179688 L 80.839844 28.179688 L 80.855469 28.28125 C 81.136719 28.195312 81.421875 28.148438 81.710938 28.132812 C 81.910156 28.117188 82.105469 28.175781 82.261719 28.296875 C 82.386719 28.414062 82.433594 28.574219 82.433594 28.804688 L 82.433594 29.796875 Z M 81.992188 29.796875 "/>
<path style=" stroke:none;fill-rule:nonzero;fill:rgb(57.647059%,58.431373%,59.607843%);fill-opacity:1;" d="M 83.707031 29.839844 C 83.488281 29.839844 83.292969 29.78125 83.1875 29.609375 C 83.097656 29.460938 83.058594 29.289062 83.070312 29.117188 L 83.070312 28.515625 L 82.746094 28.515625 L 82.746094 28.179688 L 83.070312 28.179688 L 83.117188 27.6875 L 83.511719 27.6875 L 83.511719 28.179688 L 84.140625 28.179688 L 84.140625 28.515625 L 83.511719 28.515625 L 83.511719 29.03125 C 83.503906 29.136719 83.519531 29.242188 83.554688 29.339844 C 83.601562 29.449219 83.707031 29.492188 83.847656 29.492188 C 83.953125 29.488281 84.058594 29.476562 84.164062 29.460938 L 84.164062 29.78125 C 84.015625 29.816406 83.859375 29.835938 83.703125 29.839844 "/>
<path style=" stroke:none;fill-rule:nonzero;fill:rgb(57.647059%,58.431373%,59.607843%);fill-opacity:1;" d="M 84.578125 29.796875 L 84.578125 28.179688 L 84.941406 28.179688 L 84.957031 28.28125 C 85.210938 28.191406 85.476562 28.140625 85.75 28.132812 C 85.765625 28.132812 85.785156 28.132812 85.804688 28.132812 L 85.804688 28.523438 C 85.753906 28.523438 85.695312 28.523438 85.652344 28.523438 C 85.441406 28.523438 85.226562 28.554688 85.023438 28.609375 L 85.023438 29.804688 Z M 84.578125 29.796875 "/>
<path style=" stroke:none;fill-rule:nonzero;fill:rgb(57.647059%,58.431373%,59.607843%);fill-opacity:1;" d="M 87.429688 29.117188 C 87.242188 29.101562 87.054688 29.089844 86.851562 29.089844 C 86.527344 29.089844 86.414062 29.15625 86.414062 29.308594 C 86.414062 29.460938 86.507812 29.523438 86.757812 29.523438 C 86.984375 29.515625 87.207031 29.484375 87.429688 29.429688 Z M 87.523438 29.796875 L 87.507812 29.699219 C 87.226562 29.78125 86.933594 29.828125 86.640625 29.84375 C 86.472656 29.851562 86.304688 29.8125 86.15625 29.722656 C 86.039062 29.632812 85.972656 29.484375 85.980469 29.332031 C 85.972656 29.140625 86.078125 28.96875 86.25 28.894531 C 86.417969 28.8125 86.640625 28.804688 86.847656 28.804688 C 87.015625 28.804688 87.238281 28.816406 87.429688 28.828125 L 87.429688 28.800781 C 87.429688 28.546875 87.261719 28.464844 86.8125 28.464844 C 86.636719 28.464844 86.425781 28.472656 86.226562 28.492188 L 86.226562 28.164062 C 86.449219 28.148438 86.703125 28.132812 86.914062 28.132812 C 87.191406 28.132812 87.480469 28.15625 87.65625 28.285156 C 87.835938 28.414062 87.875 28.601562 87.875 28.839844 L 87.875 29.796875 Z M 87.523438 29.796875 "/>
<path style=" stroke:none;fill-rule:nonzero;fill:rgb(57.647059%,58.431373%,59.607843%);fill-opacity:1;" d="M 88.449219 27.496094 L 88.894531 27.496094 L 88.894531 29.796875 L 88.449219 29.796875 Z M 88.449219 27.496094 "/>
</g>
</svg>
